<?xml version="1.0" encoding="UTF-8"?>
<svg width="960" height="540" viewBox="0 0 960 540" xmlns="http://www.w3.org/2000/svg">
  <rect width="960" height="540" fill="#0f172a"/>
  <defs>
    <marker id="arr-flow" markerWidth="6" markerHeight="6" refX="5" refY="3" orient="auto">
      <path d="M0,0 L6,3 L0,6 Z" fill="#475569"/>
    </marker>
    <marker id="arr-dash" markerWidth="6" markerHeight="6" refX="5" refY="3" orient="auto">
      <path d="M0,0 L6,3 L0,6 Z" fill="#334155"/>
    </marker>
    <marker id="arr-red3" markerWidth="6" markerHeight="6" refX="5" refY="3" orient="auto">
      <path d="M0,0 L6,3 L0,6 Z" fill="#e11d48"/>
    </marker>
  </defs>

  <!-- Layer backgrounds (light bands) -->
  <rect x="0" y="0" width="130" height="540" fill="#64748b" fill-opacity="0.03"/>
  <rect x="132" y="0" width="150" height="540" fill="#1d4ed8" fill-opacity="0.04"/>
  <rect x="284" y="0" width="155" height="540" fill="#b45309" fill-opacity="0.04"/>
  <rect x="441" y="0" width="155" height="540" fill="#15803d" fill-opacity="0.04"/>
  <rect x="598" y="0" width="155" height="540" fill="#6d28d9" fill-opacity="0.04"/>
  <rect x="755" y="0" width="100" height="540" fill="#d97706" fill-opacity="0.06"/>
  <rect x="857" y="0" width="103" height="540" fill="#64748b" fill-opacity="0.03"/>

  <!-- Layer headers -->
  <text x="65" y="15" fill="#64748b" font-size="9" font-family="sans-serif" text-anchor="middle" font-weight="600">INPUTS</text>
  <text x="207" y="15" fill="#1d4ed8" font-size="9" font-family="sans-serif" text-anchor="middle" font-weight="600">ACQUISITION</text>
  <text x="361" y="15" fill="#b45309" font-size="9" font-family="sans-serif" text-anchor="middle" font-weight="600">EVAL/TRUST</text>
  <text x="518" y="15" fill="#15803d" font-size="9" font-family="sans-serif" text-anchor="middle" font-weight="600">CONVERSION</text>
  <text x="675" y="15" fill="#6d28d9" font-size="9" font-family="sans-serif" text-anchor="middle" font-weight="600">RETENTION</text>
  <text x="805" y="15" fill="#d97706" font-size="9" font-family="sans-serif" text-anchor="middle" font-weight="600">NORTH STAR</text>
  <text x="908" y="15" fill="#64748b" font-size="9" font-family="sans-serif" text-anchor="middle" font-weight="600">LAGGING</text>

  <!-- Layer 1: Inputs -->
  <rect x="10" y="240" width="110" height="34" rx="4" fill="#1e293b" stroke="#334155" stroke-width="1"/>
  <text x="65" y="258" fill="#94a3b8" font-size="9" font-family="sans-serif" text-anchor="middle">ICE-Prioritized</text>
  <text x="65" y="269" fill="#94a3b8" font-size="9" font-family="sans-serif" text-anchor="middle">Initiatives</text>

  <!-- Layer 2: Acquisition -->
  <rect x="140" y="80" width="134" height="28" rx="4" fill="#1e3a8a" stroke="#2563eb" stroke-width="1"/>
  <text x="207" y="92" fill="#93c5fd" font-size="9" font-family="sans-serif" text-anchor="middle">Foreign Sessions/wk</text>
  <text x="207" y="102" fill="#60a5fa" font-size="8" font-family="sans-serif" text-anchor="middle">Owner: Marketing+Eng</text>

  <rect x="140" y="180" width="134" height="28" rx="4" fill="#1e3a8a" stroke="#2563eb" stroke-width="1"/>
  <text x="207" y="192" fill="#93c5fd" font-size="9" font-family="sans-serif" text-anchor="middle">Organic Search Impressions</text>
  <text x="207" y="202" fill="#60a5fa" font-size="8" font-family="sans-serif" text-anchor="middle">Owner: Marketing</text>

  <rect x="140" y="280" width="134" height="28" rx="4" fill="#1e3a8a" stroke="#2563eb" stroke-width="1"/>
  <text x="207" y="292" fill="#93c5fd" font-size="9" font-family="sans-serif" text-anchor="middle">% Traffic IN/AU/KR/CN</text>
  <text x="207" y="302" fill="#60a5fa" font-size="8" font-family="sans-serif" text-anchor="middle">Owner: Marketing</text>

  <!-- Layer 3: Eval/Trust -->
  <rect x="292" y="80" width="138" height="28" rx="4" fill="#292524" stroke="#b45309" stroke-width="1"/>
  <text x="361" y="92" fill="#fde68a" font-size="9" font-family="sans-serif" text-anchor="middle">Listing Trust Score</text>
  <text x="361" y="102" fill="#d97706" font-size="8" font-family="sans-serif" text-anchor="middle">Owner: Product</text>

  <rect x="292" y="190" width="138" height="28" rx="4" fill="#292524" stroke="#b45309" stroke-width="1"/>
  <text x="361" y="202" fill="#fde68a" font-size="9" font-family="sans-serif" text-anchor="middle">Avg Review Count</text>
  <text x="361" y="212" fill="#d97706" font-size="8" font-family="sans-serif" text-anchor="middle">Owner: Product/Ops</text>

  <rect x="292" y="300" width="138" height="28" rx="4" fill="#292524" stroke="#b45309" stroke-width="1"/>
  <text x="361" y="312" fill="#fde68a" font-size="9" font-family="sans-serif" text-anchor="middle">Detail Dwell Time</text>
  <text x="361" y="322" fill="#d97706" font-size="8" font-family="sans-serif" text-anchor="middle">Owner: Product/Eng</text>

  <!-- Layer 4: Conversion -->
  <rect x="449" y="80" width="140" height="28" rx="4" fill="#14532d" stroke="#16a34a" stroke-width="1"/>
  <text x="519" y="92" fill="#86efac" font-size="9" font-family="sans-serif" text-anchor="middle">Checkout Drop-off Rate</text>
  <text x="519" y="102" fill="#4ade80" font-size="8" font-family="sans-serif" text-anchor="middle">Owner: Product</text>

  <rect x="449" y="190" width="140" height="28" rx="4" fill="#14532d" stroke="#16a34a" stroke-width="1"/>
  <text x="519" y="202" fill="#86efac" font-size="9" font-family="sans-serif" text-anchor="middle">Account Exit Rate</text>
  <text x="519" y="212" fill="#4ade80" font-size="8" font-family="sans-serif" text-anchor="middle">Owner: Product</text>

  <rect x="449" y="300" width="140" height="28" rx="4" fill="#14532d" stroke="#16a34a" stroke-width="1"/>
  <text x="519" y="312" fill="#86efac" font-size="9" font-family="sans-serif" text-anchor="middle">Payment Success Rate</text>
  <text x="519" y="322" fill="#4ade80" font-size="8" font-family="sans-serif" text-anchor="middle">Owner: Product/Eng</text>

  <!-- Layer 5: Retention -->
  <rect x="605" y="120" width="138" height="28" rx="4" fill="#1a0533" stroke="#6d28d9" stroke-width="1"/>
  <text x="674" y="132" fill="#c4b5fd" font-size="9" font-family="sans-serif" text-anchor="middle">Post-Exp Review Rate</text>
  <text x="674" y="142" fill="#7c3aed" font-size="8" font-family="sans-serif" text-anchor="middle">Owner: Product</text>

  <rect x="605" y="220" width="138" height="28" rx="4" fill="#1a0533" stroke="#6d28d9" stroke-width="1"/>
  <text x="674" y="232" fill="#c4b5fd" font-size="9" font-family="sans-serif" text-anchor="middle">Referral Share Rate</text>
  <text x="674" y="242" fill="#7c3aed" font-size="8" font-family="sans-serif" text-anchor="middle">Owner: Product/Marketing</text>

  <rect x="605" y="320" width="138" height="28" rx="4" fill="#1a0533" stroke="#6d28d9" stroke-width="1"/>
  <text x="674" y="332" fill="#c4b5fd" font-size="9" font-family="sans-serif" text-anchor="middle">Return Visit Rate</text>
  <text x="674" y="342" fill="#7c3aed" font-size="8" font-family="sans-serif" text-anchor="middle">Owner: Product</text>

  <!-- Layer 6: North Star -->
  <rect x="760" y="200" width="90" height="50" rx="6" fill="#451a03" stroke="#d97706" stroke-width="2"/>
  <text x="805" y="220" fill="#fde68a" font-size="10" font-family="sans-serif" text-anchor="middle" font-weight="700">⭐ Foreign</text>
  <text x="805" y="233" fill="#fde68a" font-size="9" font-family="sans-serif" text-anchor="middle">Bookings/Month</text>
  <text x="805" y="244" fill="#d97706" font-size="8" font-family="sans-serif" text-anchor="middle">(NSM)</text>

  <!-- Layer 7: Lagging -->
  <rect x="862" y="80" width="85" height="28" rx="4" fill="#0f172a" stroke="#334155" stroke-width="1" stroke-dasharray="3,2"/>
  <text x="904" y="98" fill="#64748b" font-size="8.5" font-family="sans-serif" text-anchor="middle">Foreign GBV</text>

  <rect x="862" y="160" width="85" height="28" rx="4" fill="#0f172a" stroke="#334155" stroke-width="1" stroke-dasharray="3,2"/>
  <text x="904" y="178" fill="#64748b" font-size="8.5" font-family="sans-serif" text-anchor="middle">Net Revenue</text>

  <rect x="862" y="240" width="85" height="28" rx="4" fill="#0f172a" stroke="#334155" stroke-width="1" stroke-dasharray="3,2"/>
  <text x="904" y="258" fill="#64748b" font-size="8.5" font-family="sans-serif" text-anchor="middle">NPS</text>

  <rect x="862" y="320" width="85" height="28" rx="4" fill="#0f172a" stroke="#334155" stroke-width="1" stroke-dasharray="3,2"/>
  <text x="904" y="338" fill="#64748b" font-size="8.5" font-family="sans-serif" text-anchor="middle">LTV:CAC</text>

  <!-- Flow arrows L1→L2 -->
  <line x1="120" y1="257" x2="138" y2="200" stroke="#475569" stroke-width="1" marker-end="url(#arr-flow)"/>
  <line x1="120" y1="257" x2="138" y2="294" stroke="#475569" stroke-width="1" marker-end="url(#arr-flow)"/>

  <!-- L2→L3 -->
  <line x1="274" y1="94" x2="290" y2="94" stroke="#475569" stroke-width="1" marker-end="url(#arr-flow)"/>
  <line x1="274" y1="294" x2="290" y2="310" stroke="#475569" stroke-width="1" marker-end="url(#arr-flow)"/>

  <!-- L3→L4 -->
  <line x1="430" y1="94" x2="447" y2="94" stroke="#475569" stroke-width="1" marker-end="url(#arr-flow)"/>
  <line x1="430" y1="204" x2="447" y2="204" stroke="#475569" stroke-width="1" marker-end="url(#arr-flow)"/>
  <line x1="430" y1="314" x2="447" y2="314" stroke="#475569" stroke-width="1" marker-end="url(#arr-flow)"/>

  <!-- L4→L5 -->
  <line x1="589" y1="100" x2="603" y2="130" stroke="#475569" stroke-width="1" marker-end="url(#arr-flow)"/>
  <line x1="589" y1="204" x2="603" y2="232" stroke="#475569" stroke-width="1" marker-end="url(#arr-flow)"/>
  <line x1="589" y1="314" x2="603" y2="330" stroke="#475569" stroke-width="1" marker-end="url(#arr-flow)"/>

  <!-- L5→NSM -->
  <line x1="743" y1="134" x2="758" y2="215" stroke="#475569" stroke-width="1" marker-end="url(#arr-flow)"/>
  <line x1="743" y1="234" x2="758" y2="230" stroke="#475569" stroke-width="1" marker-end="url(#arr-flow)"/>
  <line x1="743" y1="334" x2="758" y2="245" stroke="#475569" stroke-width="1" marker-end="url(#arr-flow)"/>

  <!-- NSM→Lagging dashed -->
  <line x1="850" y1="210" x2="860" y2="94" stroke="#334155" stroke-width="1" stroke-dasharray="4,2" marker-end="url(#arr-dash)"/>
  <line x1="850" y1="220" x2="860" y2="174" stroke="#334155" stroke-width="1" stroke-dasharray="4,2" marker-end="url(#arr-dash)"/>
  <line x1="850" y1="230" x2="860" y2="254" stroke="#334155" stroke-width="1" stroke-dasharray="4,2" marker-end="url(#arr-dash)"/>
  <line x1="850" y1="240" x2="860" y2="334" stroke="#334155" stroke-width="1" stroke-dasharray="4,2" marker-end="url(#arr-dash)"/>

  <!-- Red feedback arrow from Checkout Drop-off -->
  <path d="M519,80 Q519,60 480,50 Q440,40 440,70 Q440,90 449,90" stroke="#e11d48" stroke-width="1" fill="none" stroke-dasharray="3,2" marker-end="url(#arr-red3)"/>
  <text x="470" y="45" fill="#e11d48" font-size="8" font-family="sans-serif">-Drip pricing</text>
  <text x="470" y="56" fill="#e11d48" font-size="8" font-family="sans-serif">-Account gate</text>
</svg>